<mxfile host="65bd71144e">
    <diagram id="K2NscuOs2MQT120vxXIu" name="Page-1">
        <mxGraphModel dx="873" dy="486" grid="1" gridSize="10" guides="1" tooltips="1" connect="1" arrows="1" fold="1" page="1" pageScale="1" pageWidth="850" pageHeight="1100" math="0" shadow="0">
            <root>
                <mxCell id="0"/>
                <mxCell id="1" parent="0"/>
                <mxCell id="32" value="" style="edgeStyle=none;html=1;" parent="1" source="2" target="26" edge="1">
                    <mxGeometry relative="1" as="geometry"/>
                </mxCell>
                <mxCell id="37" style="edgeStyle=none;html=1;exitX=0.5;exitY=1;exitDx=0;exitDy=0;entryX=0.5;entryY=0;entryDx=0;entryDy=0;" parent="1" source="2" target="18" edge="1">
                    <mxGeometry relative="1" as="geometry"/>
                </mxCell>
                <mxCell id="62" style="edgeStyle=none;html=1;exitX=0;exitY=0.25;exitDx=0;exitDy=0;entryX=1;entryY=0.5;entryDx=0;entryDy=0;" parent="1" source="2" target="11" edge="1">
                    <mxGeometry relative="1" as="geometry"/>
                </mxCell>
                <mxCell id="64" style="edgeStyle=none;html=1;exitX=0;exitY=0.75;exitDx=0;exitDy=0;entryX=1;entryY=0.5;entryDx=0;entryDy=0;" parent="1" source="2" target="40" edge="1">
                    <mxGeometry relative="1" as="geometry"/>
                </mxCell>
                <mxCell id="2" value="Main menu" style="swimlane;rounded=0;" parent="1" vertex="1">
                    <mxGeometry x="360" y="140" width="280" height="210" as="geometry"/>
                </mxCell>
                <mxCell id="4" value="Select number ?" style="text;html=1;strokeColor=none;fillColor=none;align=center;verticalAlign=middle;whiteSpace=wrap;rounded=0;" parent="2" vertex="1">
                    <mxGeometry x="20" y="40" width="111" height="30" as="geometry"/>
                </mxCell>
                <mxCell id="5" value="1 ) Create database" style="text;html=1;strokeColor=none;fillColor=none;align=center;verticalAlign=middle;whiteSpace=wrap;rounded=0;" parent="2" vertex="1">
                    <mxGeometry x="20" y="80" width="120" height="30" as="geometry"/>
                </mxCell>
                <mxCell id="7" value="2 ) List all database&amp;nbsp;" style="text;html=1;strokeColor=none;fillColor=none;align=center;verticalAlign=middle;whiteSpace=wrap;rounded=0;" parent="2" vertex="1">
                    <mxGeometry x="20" y="110" width="120" height="30" as="geometry"/>
                </mxCell>
                <mxCell id="8" value="3 ) DROP database&amp;nbsp;" style="text;html=1;strokeColor=none;fillColor=none;align=center;verticalAlign=middle;whiteSpace=wrap;rounded=0;" parent="2" vertex="1">
                    <mxGeometry x="20" y="140" width="120" height="30" as="geometry"/>
                </mxCell>
                <mxCell id="10" value="4 ) Connect to database" style="text;html=1;strokeColor=none;fillColor=none;align=center;verticalAlign=middle;whiteSpace=wrap;rounded=0;" parent="2" vertex="1">
                    <mxGeometry x="20" y="170" width="140" height="30" as="geometry"/>
                </mxCell>
                <mxCell id="11" value="Create DB" style="swimlane;rounded=0;" parent="1" vertex="1">
                    <mxGeometry x="50" y="140" width="280" height="100" as="geometry"/>
                </mxCell>
                <mxCell id="12" value="Enter the name of the database&amp;nbsp;" style="text;html=1;strokeColor=none;fillColor=none;align=center;verticalAlign=middle;whiteSpace=wrap;rounded=0;" parent="11" vertex="1">
                    <mxGeometry x="21" y="26" width="190" height="30" as="geometry"/>
                </mxCell>
                <mxCell id="35" value="DB name" style="strokeWidth=1;shadow=0;dashed=0;align=center;html=1;shape=mxgraph.mockup.text.textBox;fontColor=#666666;align=left;fontSize=17;spacingLeft=4;spacingTop=-3;strokeColor=#666666;mainText=" parent="11" vertex="1">
                    <mxGeometry x="30" y="56" width="170" height="30" as="geometry"/>
                </mxCell>
                <mxCell id="50" value="" style="edgeStyle=none;html=1;" parent="1" source="18" target="45" edge="1">
                    <mxGeometry relative="1" as="geometry"/>
                </mxCell>
                <mxCell id="18" value="Connect to DB" style="swimlane;rounded=0;" parent="1" vertex="1">
                    <mxGeometry x="360" y="380" width="280" height="210" as="geometry"/>
                </mxCell>
                <mxCell id="22" value="Select DB to connect" style="text;html=1;align=center;verticalAlign=middle;resizable=0;points=[];autosize=1;strokeColor=none;fillColor=none;" parent="18" vertex="1">
                    <mxGeometry y="50" width="130" height="20" as="geometry"/>
                </mxCell>
                <mxCell id="24" value="2 ) secondDB" style="text;html=1;align=center;verticalAlign=middle;resizable=0;points=[];autosize=1;strokeColor=none;fillColor=none;" parent="18" vertex="1">
                    <mxGeometry x="20" y="120" width="90" height="20" as="geometry"/>
                </mxCell>
                <mxCell id="23" value="1 ) test DB" style="text;html=1;align=center;verticalAlign=middle;resizable=0;points=[];autosize=1;strokeColor=none;fillColor=none;" parent="18" vertex="1">
                    <mxGeometry x="20.5" y="90" width="70" height="20" as="geometry"/>
                </mxCell>
                <mxCell id="25" value="3 ) back to main menu" style="text;html=1;align=center;verticalAlign=middle;resizable=0;points=[];autosize=1;strokeColor=none;fillColor=none;" parent="18" vertex="1">
                    <mxGeometry x="20.5" y="150" width="130" height="20" as="geometry"/>
                </mxCell>
                <mxCell id="26" value="List all DBs" style="swimlane;rounded=0;" parent="1" vertex="1">
                    <mxGeometry x="670" y="140" width="280" height="210" as="geometry">
                        <mxRectangle x="490" y="40" width="100" height="23" as="alternateBounds"/>
                    </mxGeometry>
                </mxCell>
                <mxCell id="27" value="Select number to connect ?" style="text;html=1;strokeColor=none;fillColor=none;align=center;verticalAlign=middle;whiteSpace=wrap;rounded=0;" parent="26" vertex="1">
                    <mxGeometry x="20" y="30" width="160" height="30" as="geometry"/>
                </mxCell>
                <mxCell id="28" value="1 ) testDB" style="text;html=1;strokeColor=none;fillColor=none;align=center;verticalAlign=middle;whiteSpace=wrap;rounded=0;" parent="26" vertex="1">
                    <mxGeometry x="24" y="56" width="60" height="30" as="geometry"/>
                </mxCell>
                <mxCell id="33" value="2 ) testttttDB" style="text;html=1;strokeColor=none;fillColor=none;align=center;verticalAlign=middle;whiteSpace=wrap;rounded=0;" parent="26" vertex="1">
                    <mxGeometry x="27" y="111" width="70" height="30" as="geometry"/>
                </mxCell>
                <mxCell id="34" value="0 ) back to main menu" style="text;html=1;align=center;verticalAlign=middle;resizable=0;points=[];autosize=1;strokeColor=none;fillColor=none;" parent="26" vertex="1">
                    <mxGeometry x="24" y="180" width="130" height="20" as="geometry"/>
                </mxCell>
                <mxCell id="54" value="* ) &amp;lt;TabelName&amp;gt;" style="text;html=1;strokeColor=none;fillColor=none;align=center;verticalAlign=middle;whiteSpace=wrap;rounded=0;" parent="26" vertex="1">
                    <mxGeometry x="44" y="74" width="96" height="30" as="geometry"/>
                </mxCell>
                <mxCell id="55" value="* ) &amp;lt;TabelName&amp;gt;" style="text;html=1;strokeColor=none;fillColor=none;align=center;verticalAlign=middle;whiteSpace=wrap;rounded=0;" parent="26" vertex="1">
                    <mxGeometry x="44" y="90" width="96" height="30" as="geometry"/>
                </mxCell>
                <mxCell id="56" value="* ) &amp;lt;TabelName&amp;gt;" style="text;html=1;strokeColor=none;fillColor=none;align=center;verticalAlign=middle;whiteSpace=wrap;rounded=0;" parent="26" vertex="1">
                    <mxGeometry x="41" y="130" width="96" height="30" as="geometry"/>
                </mxCell>
                <mxCell id="57" value="* ) &amp;lt;TabelName&amp;gt;" style="text;html=1;strokeColor=none;fillColor=none;align=center;verticalAlign=middle;whiteSpace=wrap;rounded=0;" parent="26" vertex="1">
                    <mxGeometry x="41" y="150" width="96" height="30" as="geometry"/>
                </mxCell>
                <mxCell id="40" value="Delete DB" style="swimlane;rounded=0;" parent="1" vertex="1">
                    <mxGeometry x="50" y="250" width="280" height="100" as="geometry"/>
                </mxCell>
                <mxCell id="41" value="Enter the name of the database&amp;nbsp;" style="text;html=1;strokeColor=none;fillColor=none;align=center;verticalAlign=middle;whiteSpace=wrap;rounded=0;" parent="40" vertex="1">
                    <mxGeometry x="20" y="31" width="190" height="30" as="geometry"/>
                </mxCell>
                <mxCell id="42" value="DB name" style="strokeWidth=1;shadow=0;dashed=0;align=center;html=1;shape=mxgraph.mockup.text.textBox;fontColor=#666666;align=left;fontSize=17;spacingLeft=4;spacingTop=-3;strokeColor=#666666;mainText=" parent="40" vertex="1">
                    <mxGeometry x="30" y="60" width="170" height="30" as="geometry"/>
                </mxCell>
                <mxCell id="71" value="" style="edgeStyle=none;html=1;" parent="1" source="45" target="65" edge="1">
                    <mxGeometry relative="1" as="geometry"/>
                </mxCell>
                <mxCell id="128" value="" style="edgeStyle=none;html=1;" edge="1" parent="1" source="45" target="119">
                    <mxGeometry relative="1" as="geometry">
                        <Array as="points">
                            <mxPoint x="680" y="880"/>
                            <mxPoint x="750" y="920"/>
                            <mxPoint x="1000" y="920"/>
                        </Array>
                    </mxGeometry>
                </mxCell>
                <mxCell id="164" style="edgeStyle=none;html=1;exitX=0;exitY=0.5;exitDx=0;exitDy=0;entryX=1;entryY=0.5;entryDx=0;entryDy=0;" edge="1" parent="1" source="45" target="140">
                    <mxGeometry relative="1" as="geometry"/>
                </mxCell>
                <mxCell id="174" value="" style="edgeStyle=none;html=1;" edge="1" parent="1" source="45" target="165">
                    <mxGeometry relative="1" as="geometry">
                        <Array as="points">
                            <mxPoint x="310" y="910"/>
                            <mxPoint x="230" y="910"/>
                        </Array>
                    </mxGeometry>
                </mxCell>
                <mxCell id="198" value="" style="edgeStyle=none;html=1;" edge="1" parent="1" source="45" target="189">
                    <mxGeometry relative="1" as="geometry"/>
                </mxCell>
                <mxCell id="251" style="edgeStyle=none;html=1;exitX=0.75;exitY=1;exitDx=0;exitDy=0;entryX=0.25;entryY=0;entryDx=0;entryDy=0;" edge="1" parent="1" source="45" target="228">
                    <mxGeometry relative="1" as="geometry">
                        <Array as="points">
                            <mxPoint x="600" y="940"/>
                            <mxPoint x="750" y="940"/>
                            <mxPoint x="750" y="1040"/>
                            <mxPoint x="870" y="1040"/>
                        </Array>
                    </mxGeometry>
                </mxCell>
                <mxCell id="45" value="&lt;DB name&gt;" style="swimlane;rounded=0;" parent="1" vertex="1">
                    <mxGeometry x="360" y="610" width="280" height="290" as="geometry"/>
                </mxCell>
                <mxCell id="46" value="&amp;lt;DB name&amp;gt; is open" style="text;html=1;align=center;verticalAlign=middle;resizable=0;points=[];autosize=1;strokeColor=none;fillColor=none;" parent="45" vertex="1">
                    <mxGeometry x="18" y="44" width="120" height="20" as="geometry"/>
                </mxCell>
                <mxCell id="47" value="2 ) LIST&amp;nbsp; tables" style="text;html=1;align=center;verticalAlign=middle;resizable=0;points=[];autosize=1;strokeColor=none;fillColor=none;" parent="45" vertex="1">
                    <mxGeometry x="13" y="111" width="100" height="20" as="geometry"/>
                </mxCell>
                <mxCell id="48" value="1 ) CREATE table" style="text;html=1;align=center;verticalAlign=middle;resizable=0;points=[];autosize=1;strokeColor=none;fillColor=none;" parent="45" vertex="1">
                    <mxGeometry x="15.5" y="81" width="110" height="20" as="geometry"/>
                </mxCell>
                <mxCell id="49" value="3 ) DROP table" style="text;html=1;align=center;verticalAlign=middle;resizable=0;points=[];autosize=1;strokeColor=none;fillColor=none;" parent="45" vertex="1">
                    <mxGeometry x="15.5" y="141" width="100" height="20" as="geometry"/>
                </mxCell>
                <mxCell id="73" value="4 ) INSERT INTO&amp;nbsp; table" style="text;html=1;align=center;verticalAlign=middle;resizable=0;points=[];autosize=1;strokeColor=none;fillColor=none;" parent="45" vertex="1">
                    <mxGeometry x="18" y="170" width="140" height="20" as="geometry"/>
                </mxCell>
                <mxCell id="96" value="5 ) SELECT FROM table" style="text;html=1;align=center;verticalAlign=middle;resizable=0;points=[];autosize=1;strokeColor=none;fillColor=none;" vertex="1" parent="45">
                    <mxGeometry x="18" y="200" width="150" height="20" as="geometry"/>
                </mxCell>
                <mxCell id="105" value="6 ) DELET FROM table" style="text;html=1;align=center;verticalAlign=middle;resizable=0;points=[];autosize=1;strokeColor=none;fillColor=none;" vertex="1" parent="45">
                    <mxGeometry x="18" y="230" width="140" height="20" as="geometry"/>
                </mxCell>
                <mxCell id="106" value="7 ) UPDATE&amp;nbsp; table" style="text;html=1;align=center;verticalAlign=middle;resizable=0;points=[];autosize=1;strokeColor=none;fillColor=none;" vertex="1" parent="45">
                    <mxGeometry x="19" y="260" width="110" height="20" as="geometry"/>
                </mxCell>
                <mxCell id="87" style="edgeStyle=none;html=1;exitX=1;exitY=0.25;exitDx=0;exitDy=0;entryX=0;entryY=0.5;entryDx=0;entryDy=0;" edge="1" parent="1" source="65" target="75">
                    <mxGeometry relative="1" as="geometry"/>
                </mxCell>
                <mxCell id="65" value="CREATE table" style="swimlane;rounded=0;" parent="1" vertex="1">
                    <mxGeometry x="700" y="640" width="280" height="210" as="geometry"/>
                </mxCell>
                <mxCell id="66" value="Enter the tabel name" style="text;html=1;align=center;verticalAlign=middle;resizable=0;points=[];autosize=1;strokeColor=none;fillColor=none;" parent="65" vertex="1">
                    <mxGeometry x="13" y="44" width="130" height="20" as="geometry"/>
                </mxCell>
                <mxCell id="72" value="TABLE name" style="strokeWidth=1;shadow=0;dashed=0;align=center;html=1;shape=mxgraph.mockup.text.textBox;fontColor=#666666;align=left;fontSize=17;spacingLeft=4;spacingTop=-3;strokeColor=#666666;mainText=" parent="65" vertex="1">
                    <mxGeometry x="20" y="80" width="170" height="30" as="geometry"/>
                </mxCell>
                <mxCell id="85" style="edgeStyle=none;html=1;exitX=0.5;exitY=1;exitDx=0;exitDy=0;" edge="1" parent="1" source="75" target="79">
                    <mxGeometry relative="1" as="geometry"/>
                </mxCell>
                <mxCell id="75" value="Entity " style="swimlane;rounded=0;" vertex="1" parent="1">
                    <mxGeometry x="1010" y="610" width="320" height="100" as="geometry"/>
                </mxCell>
                <mxCell id="76" value="Enter the entity name by defaults the first colum is primry" style="text;html=1;align=center;verticalAlign=middle;resizable=0;points=[];autosize=1;strokeColor=none;fillColor=none;" vertex="1" parent="75">
                    <mxGeometry y="30" width="320" height="20" as="geometry"/>
                </mxCell>
                <mxCell id="77" value="Entity name" style="strokeWidth=1;shadow=0;dashed=0;align=center;html=1;shape=mxgraph.mockup.text.textBox;fontColor=#666666;align=left;fontSize=17;spacingLeft=4;spacingTop=-3;strokeColor=#666666;mainText=" vertex="1" parent="75">
                    <mxGeometry x="20" y="50" width="170" height="30" as="geometry"/>
                </mxCell>
                <mxCell id="92" value="" style="edgeStyle=none;html=1;" edge="1" parent="1" source="79" target="88">
                    <mxGeometry relative="1" as="geometry"/>
                </mxCell>
                <mxCell id="79" value="Entity  DataType" style="swimlane;rounded=0;" vertex="1" parent="1">
                    <mxGeometry x="1010" y="760" width="280" height="100" as="geometry"/>
                </mxCell>
                <mxCell id="80" value="Select Entity DataType" style="text;html=1;align=center;verticalAlign=middle;resizable=0;points=[];autosize=1;strokeColor=none;fillColor=none;" vertex="1" parent="79">
                    <mxGeometry x="14" y="30" width="140" height="20" as="geometry"/>
                </mxCell>
                <mxCell id="82" value="1 )&amp;nbsp; Integer" style="text;html=1;align=center;verticalAlign=middle;resizable=0;points=[];autosize=1;strokeColor=none;fillColor=none;" vertex="1" parent="79">
                    <mxGeometry x="18" y="51" width="70" height="20" as="geometry"/>
                </mxCell>
                <mxCell id="83" value="2 )&amp;nbsp; String" style="text;html=1;align=center;verticalAlign=middle;resizable=0;points=[];autosize=1;strokeColor=none;fillColor=none;" vertex="1" parent="79">
                    <mxGeometry x="14" y="71" width="70" height="20" as="geometry"/>
                </mxCell>
                <mxCell id="94" style="edgeStyle=none;html=1;exitX=0.5;exitY=0;exitDx=0;exitDy=0;entryX=0.5;entryY=0;entryDx=0;entryDy=0;" edge="1" parent="1" source="88" target="75">
                    <mxGeometry relative="1" as="geometry">
                        <Array as="points">
                            <mxPoint x="1470" y="520"/>
                            <mxPoint x="1170" y="520"/>
                        </Array>
                    </mxGeometry>
                </mxCell>
                <mxCell id="113" value="" style="edgeStyle=none;html=1;" edge="1" parent="1" source="88" target="108">
                    <mxGeometry relative="1" as="geometry"/>
                </mxCell>
                <mxCell id="88" value="Add Another Entity" style="swimlane;rounded=0;startSize=23;" vertex="1" parent="1">
                    <mxGeometry x="1330" y="730" width="280" height="130" as="geometry"/>
                </mxCell>
                <mxCell id="89" value="Add another entity or back" style="text;html=1;align=center;verticalAlign=middle;resizable=0;points=[];autosize=1;strokeColor=none;fillColor=none;" vertex="1" parent="88">
                    <mxGeometry x="4" y="30" width="160" height="20" as="geometry"/>
                </mxCell>
                <mxCell id="90" value="1 )&amp;nbsp; Add entity" style="text;html=1;align=center;verticalAlign=middle;resizable=0;points=[];autosize=1;strokeColor=none;fillColor=none;" vertex="1" parent="88">
                    <mxGeometry x="22" y="51" width="90" height="20" as="geometry"/>
                </mxCell>
                <mxCell id="91" value="00 )&amp;nbsp; Finish" style="text;html=1;align=center;verticalAlign=middle;resizable=0;points=[];autosize=1;strokeColor=none;fillColor=none;" vertex="1" parent="88">
                    <mxGeometry x="20" y="71" width="70" height="20" as="geometry"/>
                </mxCell>
                <mxCell id="93" value="0 ) back to&amp;nbsp; main menu" style="text;html=1;align=center;verticalAlign=middle;resizable=0;points=[];autosize=1;strokeColor=none;fillColor=none;" vertex="1" parent="88">
                    <mxGeometry x="20" y="91" width="140" height="20" as="geometry"/>
                </mxCell>
                <mxCell id="108" value="overview table" style="swimlane;rounded=0;startSize=23;fillColor=#33FFFF;" vertex="1" parent="1">
                    <mxGeometry x="1330" y="900" width="280" height="160" as="geometry"/>
                </mxCell>
                <mxCell id="114" value="Table :&amp;nbsp;" style="text;html=1;align=center;verticalAlign=middle;resizable=0;points=[];autosize=1;strokeColor=none;fillColor=none;" vertex="1" parent="108">
                    <mxGeometry x="4" y="30" width="50" height="20" as="geometry"/>
                </mxCell>
                <mxCell id="115" value="enitity one" style="text;html=1;align=center;verticalAlign=middle;resizable=0;points=[];autosize=1;strokeColor=none;fillColor=none;" vertex="1" parent="108">
                    <mxGeometry x="15" y="50" width="70" height="20" as="geometry"/>
                </mxCell>
                <mxCell id="116" value="enitity two" style="text;html=1;align=center;verticalAlign=middle;resizable=0;points=[];autosize=1;strokeColor=none;fillColor=none;" vertex="1" parent="108">
                    <mxGeometry x="15" y="70" width="70" height="20" as="geometry"/>
                </mxCell>
                <mxCell id="117" value="enitity three" style="text;html=1;align=center;verticalAlign=middle;resizable=0;points=[];autosize=1;strokeColor=none;fillColor=none;" vertex="1" parent="108">
                    <mxGeometry x="15" y="90" width="80" height="20" as="geometry"/>
                </mxCell>
                <mxCell id="118" value="select entity to be primry key" style="text;html=1;align=center;verticalAlign=middle;resizable=0;points=[];autosize=1;strokeColor=none;fillColor=none;" vertex="1" parent="108">
                    <mxGeometry x="15" y="121" width="170" height="20" as="geometry"/>
                </mxCell>
                <mxCell id="119" value="LIST Tables" style="swimlane;rounded=0;" vertex="1" parent="1">
                    <mxGeometry x="1000" y="870" width="280" height="170" as="geometry"/>
                </mxCell>
                <mxCell id="135" value="Entity name&amp;nbsp;" style="text;html=1;align=center;verticalAlign=middle;resizable=0;points=[];autosize=1;strokeColor=none;fillColor=none;" vertex="1" parent="119">
                    <mxGeometry x="88" y="70" width="80" height="20" as="geometry"/>
                </mxCell>
                <mxCell id="136" value="Entity name&amp;nbsp;" style="text;html=1;align=center;verticalAlign=middle;resizable=0;points=[];autosize=1;strokeColor=none;fillColor=none;" vertex="1" parent="119">
                    <mxGeometry x="180" y="71" width="80" height="20" as="geometry"/>
                </mxCell>
                <mxCell id="138" value="Datatype" style="text;html=1;align=center;verticalAlign=middle;resizable=0;points=[];autosize=1;strokeColor=none;fillColor=none;" vertex="1" parent="119">
                    <mxGeometry x="90" y="100" width="60" height="20" as="geometry"/>
                </mxCell>
                <mxCell id="139" value="Datatype" style="text;html=1;align=center;verticalAlign=middle;resizable=0;points=[];autosize=1;strokeColor=none;fillColor=none;" vertex="1" parent="119">
                    <mxGeometry x="190" y="100" width="60" height="20" as="geometry"/>
                </mxCell>
                <mxCell id="225" value="table name" style="text;html=1;align=center;verticalAlign=middle;resizable=0;points=[];autosize=1;strokeColor=none;fillColor=none;" vertex="1" parent="119">
                    <mxGeometry x="20" y="40" width="70" height="20" as="geometry"/>
                </mxCell>
                <mxCell id="163" style="edgeStyle=none;html=1;exitX=1;exitY=0.25;exitDx=0;exitDy=0;entryX=0;entryY=0.25;entryDx=0;entryDy=0;" edge="1" parent="1" source="140" target="45">
                    <mxGeometry relative="1" as="geometry"/>
                </mxCell>
                <mxCell id="140" value="DROP" style="swimlane;rounded=0;" vertex="1" parent="1">
                    <mxGeometry x="40" y="630" width="280" height="230" as="geometry"/>
                </mxCell>
                <mxCell id="141" value="Select table to be remove" style="text;html=1;align=center;verticalAlign=middle;resizable=0;points=[];autosize=1;strokeColor=none;fillColor=none;" vertex="1" parent="140">
                    <mxGeometry x="20" y="44" width="150" height="20" as="geometry"/>
                </mxCell>
                <mxCell id="150" value="1 ) &amp;lt;table name&amp;gt;" style="text;html=1;align=center;verticalAlign=middle;resizable=0;points=[];autosize=1;strokeColor=none;fillColor=none;" vertex="1" parent="140">
                    <mxGeometry y="71" width="110" height="20" as="geometry"/>
                </mxCell>
                <mxCell id="151" value="2 ) &amp;lt;table name&amp;gt;" style="text;html=1;align=center;verticalAlign=middle;resizable=0;points=[];autosize=1;strokeColor=none;fillColor=none;" vertex="1" parent="140">
                    <mxGeometry y="105" width="110" height="20" as="geometry"/>
                </mxCell>
                <mxCell id="152" value="00&amp;nbsp; ) back" style="text;html=1;align=center;verticalAlign=middle;resizable=0;points=[];autosize=1;strokeColor=none;fillColor=none;" vertex="1" parent="140">
                    <mxGeometry x="5" y="150" width="70" height="20" as="geometry"/>
                </mxCell>
                <mxCell id="153" value="0 )&amp;nbsp; main menu" style="text;html=1;align=center;verticalAlign=middle;resizable=0;points=[];autosize=1;strokeColor=none;fillColor=none;" vertex="1" parent="140">
                    <mxGeometry x="5" y="170" width="100" height="20" as="geometry"/>
                </mxCell>
                <mxCell id="186" value="" style="edgeStyle=none;html=1;" edge="1" parent="1" source="165" target="180">
                    <mxGeometry relative="1" as="geometry"/>
                </mxCell>
                <mxCell id="165" value="SELECT " style="swimlane;rounded=0;" vertex="1" parent="1">
                    <mxGeometry x="70" y="960" width="280" height="190" as="geometry"/>
                </mxCell>
                <mxCell id="175" value="Select table" style="text;html=1;align=center;verticalAlign=middle;resizable=0;points=[];autosize=1;strokeColor=none;fillColor=none;" vertex="1" parent="165">
                    <mxGeometry x="55" y="40" width="80" height="20" as="geometry"/>
                </mxCell>
                <mxCell id="176" value="1 ) &amp;lt;table name&amp;gt;" style="text;html=1;align=center;verticalAlign=middle;resizable=0;points=[];autosize=1;strokeColor=none;fillColor=none;" vertex="1" parent="165">
                    <mxGeometry x="30" y="67" width="110" height="20" as="geometry"/>
                </mxCell>
                <mxCell id="177" value="2 ) &amp;lt;table name&amp;gt;" style="text;html=1;align=center;verticalAlign=middle;resizable=0;points=[];autosize=1;strokeColor=none;fillColor=none;" vertex="1" parent="165">
                    <mxGeometry x="30" y="87" width="110" height="20" as="geometry"/>
                </mxCell>
                <mxCell id="178" value="00&amp;nbsp; ) back" style="text;html=1;align=center;verticalAlign=middle;resizable=0;points=[];autosize=1;strokeColor=none;fillColor=none;" vertex="1" parent="165">
                    <mxGeometry x="35" y="120" width="70" height="20" as="geometry"/>
                </mxCell>
                <mxCell id="179" value="0 )&amp;nbsp; main menu" style="text;html=1;align=center;verticalAlign=middle;resizable=0;points=[];autosize=1;strokeColor=none;fillColor=none;" vertex="1" parent="165">
                    <mxGeometry x="35" y="140" width="100" height="20" as="geometry"/>
                </mxCell>
                <mxCell id="224" style="edgeStyle=none;html=1;exitX=0.5;exitY=1;exitDx=0;exitDy=0;entryX=0.5;entryY=0;entryDx=0;entryDy=0;" edge="1" parent="1" source="180" target="219">
                    <mxGeometry relative="1" as="geometry"/>
                </mxCell>
                <mxCell id="180" value="&lt;TableName&gt;" style="swimlane;rounded=0;" vertex="1" parent="1">
                    <mxGeometry x="70" y="1200" width="280" height="190" as="geometry"/>
                </mxCell>
                <mxCell id="181" value="Select table" style="text;html=1;align=center;verticalAlign=middle;resizable=0;points=[];autosize=1;strokeColor=none;fillColor=none;" vertex="1" parent="180">
                    <mxGeometry x="55" y="40" width="80" height="20" as="geometry"/>
                </mxCell>
                <mxCell id="182" value="1 ) select where" style="text;html=1;align=center;verticalAlign=middle;resizable=0;points=[];autosize=1;strokeColor=none;fillColor=none;" vertex="1" parent="180">
                    <mxGeometry x="25" y="90" width="100" height="20" as="geometry"/>
                </mxCell>
                <mxCell id="183" value="*&amp;nbsp; ) select all" style="text;html=1;align=center;verticalAlign=middle;resizable=0;points=[];autosize=1;strokeColor=none;fillColor=none;" vertex="1" parent="180">
                    <mxGeometry x="35" y="70" width="80" height="20" as="geometry"/>
                </mxCell>
                <mxCell id="184" value="00&amp;nbsp; ) back" style="text;html=1;align=center;verticalAlign=middle;resizable=0;points=[];autosize=1;strokeColor=none;fillColor=none;" vertex="1" parent="180">
                    <mxGeometry x="30" y="127" width="70" height="20" as="geometry"/>
                </mxCell>
                <mxCell id="185" value="0 )&amp;nbsp; main menu" style="text;html=1;align=center;verticalAlign=middle;resizable=0;points=[];autosize=1;strokeColor=none;fillColor=none;" vertex="1" parent="180">
                    <mxGeometry x="35" y="147" width="100" height="20" as="geometry"/>
                </mxCell>
                <mxCell id="210" value="" style="edgeStyle=none;html=1;" edge="1" parent="1" source="189" target="204">
                    <mxGeometry relative="1" as="geometry"/>
                </mxCell>
                <mxCell id="189" value="Delete " style="swimlane;rounded=0;" vertex="1" parent="1">
                    <mxGeometry x="370" y="960" width="280" height="180" as="geometry"/>
                </mxCell>
                <mxCell id="199" value="Select table to delete from" style="text;html=1;align=center;verticalAlign=middle;resizable=0;points=[];autosize=1;strokeColor=none;fillColor=none;" vertex="1" parent="189">
                    <mxGeometry x="8" y="30" width="150" height="20" as="geometry"/>
                </mxCell>
                <mxCell id="200" value="1 ) &amp;lt;table name&amp;gt;" style="text;html=1;align=center;verticalAlign=middle;resizable=0;points=[];autosize=1;strokeColor=none;fillColor=none;" vertex="1" parent="189">
                    <mxGeometry x="18" y="57" width="110" height="20" as="geometry"/>
                </mxCell>
                <mxCell id="201" value="2 ) &amp;lt;table name&amp;gt;" style="text;html=1;align=center;verticalAlign=middle;resizable=0;points=[];autosize=1;strokeColor=none;fillColor=none;" vertex="1" parent="189">
                    <mxGeometry x="18" y="77" width="110" height="20" as="geometry"/>
                </mxCell>
                <mxCell id="202" value="00&amp;nbsp; ) back" style="text;html=1;align=center;verticalAlign=middle;resizable=0;points=[];autosize=1;strokeColor=none;fillColor=none;" vertex="1" parent="189">
                    <mxGeometry x="23" y="110" width="70" height="20" as="geometry"/>
                </mxCell>
                <mxCell id="203" value="0 )&amp;nbsp; main menu" style="text;html=1;align=center;verticalAlign=middle;resizable=0;points=[];autosize=1;strokeColor=none;fillColor=none;" vertex="1" parent="189">
                    <mxGeometry x="23" y="130" width="100" height="20" as="geometry"/>
                </mxCell>
                <mxCell id="217" value="" style="edgeStyle=none;html=1;" edge="1" parent="1" source="204" target="211">
                    <mxGeometry relative="1" as="geometry"/>
                </mxCell>
                <mxCell id="204" value="&lt;tableName&gt;" style="swimlane;rounded=0;" vertex="1" parent="1">
                    <mxGeometry x="370" y="1200" width="280" height="190" as="geometry"/>
                </mxCell>
                <mxCell id="205" value="Select table to delete from" style="text;html=1;align=center;verticalAlign=middle;resizable=0;points=[];autosize=1;strokeColor=none;fillColor=none;" vertex="1" parent="204">
                    <mxGeometry x="8" y="30" width="150" height="20" as="geometry"/>
                </mxCell>
                <mxCell id="206" value="* ) delete all" style="text;html=1;align=center;verticalAlign=middle;resizable=0;points=[];autosize=1;strokeColor=none;fillColor=none;" vertex="1" parent="204">
                    <mxGeometry x="27" y="57" width="80" height="20" as="geometry"/>
                </mxCell>
                <mxCell id="207" value="2 ) delete where" style="text;html=1;align=center;verticalAlign=middle;resizable=0;points=[];autosize=1;strokeColor=none;fillColor=none;" vertex="1" parent="204">
                    <mxGeometry x="28" y="85" width="100" height="20" as="geometry"/>
                </mxCell>
                <mxCell id="208" value="00&amp;nbsp; ) back" style="text;html=1;align=center;verticalAlign=middle;resizable=0;points=[];autosize=1;strokeColor=none;fillColor=none;" vertex="1" parent="204">
                    <mxGeometry x="23" y="110" width="70" height="20" as="geometry"/>
                </mxCell>
                <mxCell id="209" value="0 )&amp;nbsp; main menu" style="text;html=1;align=center;verticalAlign=middle;resizable=0;points=[];autosize=1;strokeColor=none;fillColor=none;" vertex="1" parent="204">
                    <mxGeometry x="23" y="130" width="100" height="20" as="geometry"/>
                </mxCell>
                <mxCell id="211" value="&lt;tableName&gt;" style="swimlane;rounded=0;fillColor=#66FFFF;" vertex="1" parent="1">
                    <mxGeometry x="370" y="1420" width="280" height="170" as="geometry"/>
                </mxCell>
                <mxCell id="212" value="enter&amp;nbsp; field vlaue to delete record" style="text;html=1;align=center;verticalAlign=middle;resizable=0;points=[];autosize=1;strokeColor=none;fillColor=none;" vertex="1" parent="211">
                    <mxGeometry x="5" y="30" width="190" height="20" as="geometry"/>
                </mxCell>
                <mxCell id="215" value="00&amp;nbsp; ) back" style="text;html=1;align=center;verticalAlign=middle;resizable=0;points=[];autosize=1;strokeColor=none;fillColor=none;" vertex="1" parent="211">
                    <mxGeometry x="23" y="110" width="70" height="20" as="geometry"/>
                </mxCell>
                <mxCell id="216" value="0 )&amp;nbsp; main menu" style="text;html=1;align=center;verticalAlign=middle;resizable=0;points=[];autosize=1;strokeColor=none;fillColor=none;" vertex="1" parent="211">
                    <mxGeometry x="23" y="130" width="100" height="20" as="geometry"/>
                </mxCell>
                <mxCell id="218" value="value" style="strokeWidth=1;shadow=0;dashed=0;align=center;html=1;shape=mxgraph.mockup.text.textBox;fontColor=#666666;align=left;fontSize=17;spacingLeft=4;spacingTop=-3;strokeColor=#666666;mainText=" vertex="1" parent="211">
                    <mxGeometry x="15" y="60" width="170" height="30" as="geometry"/>
                </mxCell>
                <mxCell id="219" value="&lt;tableName&gt;" style="swimlane;rounded=0;fillColor=#99FFFF;" vertex="1" parent="1">
                    <mxGeometry x="70" y="1420" width="280" height="170" as="geometry"/>
                </mxCell>
                <mxCell id="220" value="enter&amp;nbsp; field vlaue to select record" style="text;html=1;align=center;verticalAlign=middle;resizable=0;points=[];autosize=1;strokeColor=none;fillColor=none;" vertex="1" parent="219">
                    <mxGeometry x="5" y="30" width="190" height="20" as="geometry"/>
                </mxCell>
                <mxCell id="221" value="00&amp;nbsp; ) back" style="text;html=1;align=center;verticalAlign=middle;resizable=0;points=[];autosize=1;strokeColor=none;fillColor=none;" vertex="1" parent="219">
                    <mxGeometry x="23" y="110" width="70" height="20" as="geometry"/>
                </mxCell>
                <mxCell id="222" value="0 )&amp;nbsp; main menu" style="text;html=1;align=center;verticalAlign=middle;resizable=0;points=[];autosize=1;strokeColor=none;fillColor=none;" vertex="1" parent="219">
                    <mxGeometry x="23" y="130" width="100" height="20" as="geometry"/>
                </mxCell>
                <mxCell id="223" value="value" style="strokeWidth=1;shadow=0;dashed=0;align=center;html=1;shape=mxgraph.mockup.text.textBox;fontColor=#666666;align=left;fontSize=17;spacingLeft=4;spacingTop=-3;strokeColor=#666666;mainText=" vertex="1" parent="219">
                    <mxGeometry x="15" y="60" width="170" height="30" as="geometry"/>
                </mxCell>
                <mxCell id="227" value="" style="edgeStyle=none;html=1;" edge="1" parent="1" source="228" target="235">
                    <mxGeometry relative="1" as="geometry"/>
                </mxCell>
                <mxCell id="228" value="Update" style="swimlane;rounded=0;" vertex="1" parent="1">
                    <mxGeometry x="800" y="1100" width="280" height="170" as="geometry"/>
                </mxCell>
                <mxCell id="229" value="Select table to update in" style="text;html=1;align=center;verticalAlign=middle;resizable=0;points=[];autosize=1;strokeColor=none;fillColor=none;" vertex="1" parent="228">
                    <mxGeometry x="13" y="30" width="140" height="20" as="geometry"/>
                </mxCell>
                <mxCell id="230" value="1 ) &amp;lt;table name&amp;gt;" style="text;html=1;align=center;verticalAlign=middle;resizable=0;points=[];autosize=1;strokeColor=none;fillColor=none;" vertex="1" parent="228">
                    <mxGeometry x="18" y="57" width="110" height="20" as="geometry"/>
                </mxCell>
                <mxCell id="231" value="2 ) &amp;lt;table name&amp;gt;" style="text;html=1;align=center;verticalAlign=middle;resizable=0;points=[];autosize=1;strokeColor=none;fillColor=none;" vertex="1" parent="228">
                    <mxGeometry x="18" y="77" width="110" height="20" as="geometry"/>
                </mxCell>
                <mxCell id="232" value="00&amp;nbsp; ) back" style="text;html=1;align=center;verticalAlign=middle;resizable=0;points=[];autosize=1;strokeColor=none;fillColor=none;" vertex="1" parent="228">
                    <mxGeometry x="23" y="110" width="70" height="20" as="geometry"/>
                </mxCell>
                <mxCell id="233" value="0 )&amp;nbsp; main menu" style="text;html=1;align=center;verticalAlign=middle;resizable=0;points=[];autosize=1;strokeColor=none;fillColor=none;" vertex="1" parent="228">
                    <mxGeometry x="23" y="130" width="100" height="20" as="geometry"/>
                </mxCell>
                <mxCell id="234" value="" style="edgeStyle=none;html=1;" edge="1" parent="1" source="235" target="241">
                    <mxGeometry relative="1" as="geometry"/>
                </mxCell>
                <mxCell id="235" value="&lt;tableName&gt;" style="swimlane;rounded=0;" vertex="1" parent="1">
                    <mxGeometry x="800" y="1330" width="280" height="190" as="geometry"/>
                </mxCell>
                <mxCell id="236" value="Select table to delete from" style="text;html=1;align=center;verticalAlign=middle;resizable=0;points=[];autosize=1;strokeColor=none;fillColor=none;" vertex="1" parent="235">
                    <mxGeometry x="8" y="30" width="150" height="20" as="geometry"/>
                </mxCell>
                <mxCell id="237" value="* ) update column" style="text;html=1;align=center;verticalAlign=middle;resizable=0;points=[];autosize=1;strokeColor=none;fillColor=none;" vertex="1" parent="235">
                    <mxGeometry x="23" y="57" width="110" height="20" as="geometry"/>
                </mxCell>
                <mxCell id="238" value="2 ) update where" style="text;html=1;align=center;verticalAlign=middle;resizable=0;points=[];autosize=1;strokeColor=none;fillColor=none;" vertex="1" parent="235">
                    <mxGeometry x="23" y="85" width="110" height="20" as="geometry"/>
                </mxCell>
                <mxCell id="239" value="00&amp;nbsp; ) back" style="text;html=1;align=center;verticalAlign=middle;resizable=0;points=[];autosize=1;strokeColor=none;fillColor=none;" vertex="1" parent="235">
                    <mxGeometry x="23" y="110" width="70" height="20" as="geometry"/>
                </mxCell>
                <mxCell id="240" value="0 )&amp;nbsp; main menu" style="text;html=1;align=center;verticalAlign=middle;resizable=0;points=[];autosize=1;strokeColor=none;fillColor=none;" vertex="1" parent="235">
                    <mxGeometry x="23" y="130" width="100" height="20" as="geometry"/>
                </mxCell>
                <mxCell id="241" value="&lt;tableName&gt;" style="swimlane;rounded=0;fillColor=#66FFFF;" vertex="1" parent="1">
                    <mxGeometry x="800" y="1550" width="280" height="170" as="geometry"/>
                </mxCell>
                <mxCell id="242" value="enter&amp;nbsp; field vlaue to update record" style="text;html=1;align=center;verticalAlign=middle;resizable=0;points=[];autosize=1;strokeColor=none;fillColor=none;" vertex="1" parent="241">
                    <mxGeometry x="5" y="30" width="190" height="20" as="geometry"/>
                </mxCell>
                <mxCell id="243" value="00&amp;nbsp; ) back" style="text;html=1;align=center;verticalAlign=middle;resizable=0;points=[];autosize=1;strokeColor=none;fillColor=none;" vertex="1" parent="241">
                    <mxGeometry x="23" y="110" width="70" height="20" as="geometry"/>
                </mxCell>
                <mxCell id="244" value="0 )&amp;nbsp; main menu" style="text;html=1;align=center;verticalAlign=middle;resizable=0;points=[];autosize=1;strokeColor=none;fillColor=none;" vertex="1" parent="241">
                    <mxGeometry x="23" y="130" width="100" height="20" as="geometry"/>
                </mxCell>
                <mxCell id="245" value="value" style="strokeWidth=1;shadow=0;dashed=0;align=center;html=1;shape=mxgraph.mockup.text.textBox;fontColor=#666666;align=left;fontSize=17;spacingLeft=4;spacingTop=-3;strokeColor=#666666;mainText=" vertex="1" parent="241">
                    <mxGeometry x="15" y="60" width="170" height="30" as="geometry"/>
                </mxCell>
                <mxCell id="246" value="&lt;tableName&gt;" style="swimlane;rounded=0;fillColor=#66FFFF;startSize=23;" vertex="1" parent="1">
                    <mxGeometry x="800" y="1750" width="280" height="170" as="geometry"/>
                </mxCell>
                <mxCell id="247" value="enter&amp;nbsp; field vlaue to update record" style="text;html=1;align=center;verticalAlign=middle;resizable=0;points=[];autosize=1;strokeColor=none;fillColor=none;" vertex="1" parent="246">
                    <mxGeometry x="5" y="30" width="190" height="20" as="geometry"/>
                </mxCell>
                <mxCell id="248" value="00&amp;nbsp; ) back" style="text;html=1;align=center;verticalAlign=middle;resizable=0;points=[];autosize=1;strokeColor=none;fillColor=none;" vertex="1" parent="246">
                    <mxGeometry x="23" y="110" width="70" height="20" as="geometry"/>
                </mxCell>
                <mxCell id="249" value="0 )&amp;nbsp; main menu" style="text;html=1;align=center;verticalAlign=middle;resizable=0;points=[];autosize=1;strokeColor=none;fillColor=none;" vertex="1" parent="246">
                    <mxGeometry x="23" y="130" width="100" height="20" as="geometry"/>
                </mxCell>
                <mxCell id="250" value="new value" style="strokeWidth=1;shadow=0;dashed=0;align=center;html=1;shape=mxgraph.mockup.text.textBox;fontColor=#666666;align=left;fontSize=17;spacingLeft=4;spacingTop=-3;strokeColor=#666666;mainText=" vertex="1" parent="246">
                    <mxGeometry x="15" y="60" width="170" height="30" as="geometry"/>
                </mxCell>
            </root>
        </mxGraphModel>
    </diagram>
</mxfile>